<?xml version="1.0" standalone="no"?>
<!DOCTYPE svg PUBLIC "-//W3C//DTD SVG 20010904//EN"
 "http://www.w3.org/TR/2001/REC-SVG-20010904/DTD/svg10.dtd">
<svg version="1.0" xmlns="http://www.w3.org/2000/svg"
 width="638.000000pt" height="638.000000pt" viewBox="0 0 638.000000 638.000000"
 preserveAspectRatio="xMidYMid meet">
<metadata>
Created by potrace 1.11, written by Peter Selinger 2001-2013
</metadata>
<g transform="translate(0.000000,638.000000) scale(0.100000,-0.100000)"
fill="#000000" stroke="none">
<path d="M3105 6374 c-50 -13 -107 -41 -268 -131 -142 -80 -705 -401 -757
-433 -8 -5 -60 -34 -115 -66 -160 -92 -559 -323 -575 -333 -25 -16 -194 -113
-430 -246 -395 -223 -398 -226 -463 -289 -67 -66 -104 -141 -117 -238 -7 -47
-9 -575 -7 -1493 l4 -1420 21 -59 c37 -102 120 -192 232 -253 19 -10 46 -26
60 -34 14 -9 147 -85 295 -169 248 -141 398 -228 1245 -718 157 -90 303 -175
325 -187 22 -13 114 -66 204 -119 90 -53 165 -96 168 -96 3 0 17 -9 32 -19 44
-32 150 -62 215 -63 81 0 116 7 189 41 48 21 478 263 732 411 127 74 1018 587
1050 604 11 6 27 16 35 22 8 7 38 24 65 39 28 14 66 35 85 47 19 11 125 72
235 136 235 135 272 160 325 213 39 39 92 137 107 194 4 17 8 679 9 1473 2
1553 4 1483 -51 1592 -48 94 -109 142 -376 295 -188 107 -765 439 -1174 675
-16 9 -165 95 -330 190 -165 95 -381 220 -479 277 -235 136 -274 152 -384 158
-48 2 -96 2 -107 -1z m375 -594 c113 -62 378 -215 590 -338 337 -197 684 -397
860 -495 116 -64 321 -184 475 -276 l160 -96 5 -135 c11 -284 5 -2594 -7
-2614 -10 -18 -284 -182 -826 -494 -130 -75 -250 -144 -266 -153 -15 -10 -190
-110 -387 -224 -197 -114 -384 -223 -414 -241 -112 -66 -337 -193 -407 -229
l-73 -36 -77 39 c-89 45 -95 49 -298 167 -178 105 -911 527 -975 563 -25 13
-49 28 -55 32 -5 5 -30 19 -55 32 -25 14 -117 66 -205 117 -513 297 -698 408
-708 426 -12 22 -16 2678 -4 2726 8 30 159 122 1022 619 127 73 250 144 275
158 70 39 623 359 660 382 95 58 272 157 338 189 l83 40 42 -23 c23 -13 134
-74 247 -136z"/>
<path d="M3905 4305 c-170 -96 -151 -84 -375 -222 -107 -66 -227 -137 -266
-158 l-72 -39 -63 34 c-87 46 -302 173 -490 291 -191 119 -269 159 -310 159
-35 0 -134 -50 -394 -200 -44 -25 -76 -45 -181 -113 -63 -40 -72 -50 -76 -81
-3 -31 -3 -1507 1 -1598 1 -36 3 -38 119 -103 64 -37 135 -78 157 -90 192
-111 291 -162 298 -156 5 5 9 380 10 834 2 533 6 830 13 837 6 6 73 -29 199
-105 105 -63 197 -118 205 -122 8 -3 33 -18 55 -33 58 -39 334 -205 390 -235
26 -14 56 -25 65 -25 21 0 159 79 484 279 302 185 425 255 434 247 3 -4 8
-381 9 -839 2 -457 7 -834 11 -838 6 -6 479 253 553 303 l22 14 2 814 c1 448
-1 823 -3 834 -6 21 -104 87 -297 198 -234 135 -336 188 -357 187 -7 0 -71
-33 -143 -74z"/>
</g>
</svg>
